<svg width="112" height="120" viewBox="0 0 112 120" fill="none" xmlns="http://www.w3.org/2000/svg">
<g clip-path="url(#clip0_695_11314)">
<path d="M0 8C0 3.58172 3.58172 0 8 0H112V120H8C3.58172 120 0 116.418 0 112V8Z" fill="#232D49"/>
<path d="M73.6913 58.8603C73.6913 68.6315 65.7701 76.5526 55.9989 76.5526C46.2278 76.5526 38.3066 68.6315 38.3066 58.8603C38.3066 49.0891 46.2278 41.168 55.9989 41.168C65.7701 41.168 73.6913 49.0891 73.6913 58.8603Z" fill="#3070ED"/>
<g clip-path="url(#clip1_695_11314)">
<path d="M57.4724 51.6867V54.7317C57.4724 55.1445 57.4724 55.351 57.5527 55.5087C57.6234 55.6474 57.7362 55.7601 57.8749 55.8308C58.0326 55.9112 58.239 55.9112 58.6519 55.9112H61.6968M58.9467 59.597H53.0493M58.9467 62.5457H53.0493M54.5237 56.6483H53.0493M57.4724 51.488H53.639C52.4005 51.488 51.7812 51.488 51.3081 51.7291C50.892 51.9411 50.5537 52.2794 50.3416 52.6956C50.1006 53.1686 50.1006 53.7879 50.1006 55.0265V62.6932C50.1006 63.9317 50.1006 64.551 50.3416 65.0241C50.5537 65.4402 50.892 65.7786 51.3081 65.9906C51.7812 66.2316 52.4005 66.2316 53.639 66.2316H58.357C59.5956 66.2316 60.2149 66.2316 60.6879 65.9906C61.1041 65.7786 61.4424 65.4402 61.6544 65.0241C61.8955 64.551 61.8955 63.9317 61.8955 62.6932V55.9111L57.4724 51.488Z" stroke="white" stroke-width="1.47436" stroke-linecap="round" stroke-linejoin="round"/>
</g>
<g opacity="0.31">
<path d="M106.128 35.2692C106.128 42.5976 100.187 48.5385 92.8591 48.5385C85.5307 48.5385 79.5898 42.5976 79.5898 35.2692C79.5898 27.9408 85.5307 22 92.8591 22C100.187 22 106.128 27.9408 106.128 35.2692Z" fill="#3070ED"/>
<g clip-path="url(#clip2_695_11314)">
<path d="M93.9654 29.8894V32.1732C93.9654 32.4828 93.9654 32.6376 94.0256 32.7559C94.0786 32.8599 94.1632 32.9445 94.2672 32.9975C94.3855 33.0578 94.5403 33.0578 94.85 33.0578H97.1337M95.0711 35.8221H90.6481M95.0711 38.0337H90.6481M91.7538 33.6106H90.6481M93.9654 29.7404H91.0904C90.1614 29.7404 89.697 29.7404 89.3422 29.9212C89.0301 30.0802 88.7763 30.334 88.6173 30.6461C88.4365 31.0009 88.4365 31.4653 88.4365 32.3943V38.1443C88.4365 39.0732 88.4365 39.5377 88.6173 39.8925C88.7763 40.2046 89.0301 40.4583 89.3422 40.6173C89.697 40.7981 90.1614 40.7981 91.0904 40.7981H94.6288C95.5578 40.7981 96.0222 40.7981 96.377 40.6173C96.6891 40.4583 96.9429 40.2046 97.1019 39.8925C97.2827 39.5377 97.2827 39.0732 97.2827 38.1443V33.0577L93.9654 29.7404Z" stroke="white" stroke-width="1.10577" stroke-linecap="round" stroke-linejoin="round"/>
</g>
</g>
<g opacity="0.31">
<path d="M106.128 79.2692C106.128 86.5976 100.187 92.5385 92.8591 92.5385C85.5307 92.5385 79.5898 86.5976 79.5898 79.2692C79.5898 71.9408 85.5307 66 92.8591 66C100.187 66 106.128 71.9408 106.128 79.2692Z" fill="#3070ED"/>
<g clip-path="url(#clip3_695_11314)">
<path d="M93.9654 73.8894V76.1732C93.9654 76.4828 93.9654 76.6376 94.0256 76.7559C94.0786 76.8599 94.1632 76.9445 94.2672 76.9975C94.3855 77.0578 94.5403 77.0578 94.85 77.0578H97.1337M95.0711 79.8221H90.6481M95.0711 82.0337H90.6481M91.7538 77.6106H90.6481M93.9654 73.7404H91.0904C90.1614 73.7404 89.697 73.7404 89.3422 73.9212C89.0301 74.0802 88.7763 74.334 88.6173 74.6461C88.4365 75.0009 88.4365 75.4653 88.4365 76.3943V82.1443C88.4365 83.0732 88.4365 83.5377 88.6173 83.8925C88.7763 84.2046 89.0301 84.4583 89.3422 84.6173C89.697 84.7981 90.1614 84.7981 91.0904 84.7981H94.6288C95.5578 84.7981 96.0222 84.7981 96.377 84.6173C96.6891 84.4583 96.9429 84.2046 97.1019 83.8925C97.2827 83.5377 97.2827 83.0732 97.2827 82.1443V77.0577L93.9654 73.7404Z" stroke="white" stroke-width="1.10577" stroke-linecap="round" stroke-linejoin="round"/>
</g>
</g>
<g opacity="0.31">
<path d="M32.4115 35.2692C32.4115 42.5976 26.4707 48.5385 19.1423 48.5385C11.8139 48.5385 5.87305 42.5976 5.87305 35.2692C5.87305 27.9408 11.8139 22 19.1423 22C26.4707 22 32.4115 27.9408 32.4115 35.2692Z" fill="#3070ED"/>
<g clip-path="url(#clip4_695_11314)">
<path d="M20.2486 29.8894V32.1732C20.2486 32.4828 20.2486 32.6376 20.3088 32.7559C20.3618 32.8599 20.4464 32.9445 20.5505 32.9975C20.6687 33.0578 20.8235 33.0578 21.1332 33.0578H23.4169M21.3543 35.8221H16.9313M21.3543 38.0337H16.9313M18.037 33.6106H16.9313M20.2486 29.7404H17.3736C16.4446 29.7404 15.9802 29.7404 15.6254 29.9212C15.3133 30.0802 15.0595 30.334 14.9005 30.6461C14.7197 31.0009 14.7197 31.4653 14.7197 32.3943V38.1443C14.7197 39.0732 14.7197 39.5377 14.9005 39.8925C15.0595 40.2046 15.3133 40.4583 15.6254 40.6173C15.9802 40.7981 16.4446 40.7981 17.3736 40.7981H20.912C21.841 40.7981 22.3054 40.7981 22.6602 40.6173C22.9723 40.4583 23.2261 40.2046 23.3851 39.8925C23.5659 39.5377 23.5659 39.0732 23.5659 38.1443V33.0577L20.2486 29.7404Z" stroke="white" stroke-width="1.10577" stroke-linecap="round" stroke-linejoin="round"/>
</g>
</g>
<g opacity="0.31">
<path d="M32.4115 79.2692C32.4115 86.5976 26.4707 92.5385 19.1423 92.5385C11.8139 92.5385 5.87305 86.5976 5.87305 79.2692C5.87305 71.9408 11.8139 66 19.1423 66C26.4707 66 32.4115 71.9408 32.4115 79.2692Z" fill="#3070ED"/>
<g clip-path="url(#clip5_695_11314)">
<path d="M20.2486 73.8894V76.1732C20.2486 76.4828 20.2486 76.6376 20.3088 76.7559C20.3618 76.8599 20.4464 76.9445 20.5505 76.9975C20.6687 77.0578 20.8235 77.0578 21.1332 77.0578H23.4169M21.3543 79.8221H16.9313M21.3543 82.0337H16.9313M18.037 77.6106H16.9313M20.2486 73.7404H17.3736C16.4446 73.7404 15.9802 73.7404 15.6254 73.9212C15.3133 74.0802 15.0595 74.334 14.9005 74.6461C14.7197 75.0009 14.7197 75.4653 14.7197 76.3943V82.1443C14.7197 83.0732 14.7197 83.5377 14.9005 83.8925C15.0595 84.2046 15.3133 84.4583 15.6254 84.6173C15.9802 84.7981 16.4446 84.7981 17.3736 84.7981H20.912C21.841 84.7981 22.3054 84.7981 22.6602 84.6173C22.9723 84.4583 23.2261 84.2046 23.3851 83.8925C23.5659 83.5377 23.5659 83.0732 23.5659 82.1443V77.0577L20.2486 73.7404Z" stroke="white" stroke-width="1.10577" stroke-linecap="round" stroke-linejoin="round"/>
</g>
</g>
<g opacity="0.31">
<path d="M69.5385 110.269C69.5385 117.598 63.5976 123.538 56.2692 123.538C48.9408 123.538 43 117.598 43 110.269C43 102.941 48.9408 97 56.2692 97C63.5976 97 69.5385 102.941 69.5385 110.269Z" fill="#3070ED"/>
<g clip-path="url(#clip6_695_11314)">
<path d="M57.3755 104.889V107.173C57.3755 107.483 57.3755 107.638 57.4358 107.756C57.4888 107.86 57.5734 107.944 57.6774 107.998C57.7957 108.058 57.9505 108.058 58.2601 108.058H60.5439M58.4813 110.822H54.0582M58.4813 113.034H54.0582M55.164 108.611H54.0582M57.3755 104.74H54.5005C53.5716 104.74 53.1071 104.74 52.7523 104.921C52.4402 105.08 52.1865 105.334 52.0275 105.646C51.8467 106.001 51.8467 106.465 51.8467 107.394V113.144C51.8467 114.073 51.8467 114.538 52.0275 114.892C52.1865 115.205 52.4402 115.458 52.7523 115.617C53.1071 115.798 53.5716 115.798 54.5005 115.798H58.039C58.9679 115.798 59.4324 115.798 59.7872 115.617C60.0993 115.458 60.353 115.205 60.5121 114.892C60.6928 114.538 60.6928 114.073 60.6928 113.144V108.058L57.3755 104.74Z" stroke="white" stroke-width="1.10577" stroke-linecap="round" stroke-linejoin="round"/>
</g>
</g>
<g opacity="0.31">
<path d="M69.5385 11.2692C69.5385 18.5976 63.5976 24.5385 56.2692 24.5385C48.9408 24.5385 43 18.5976 43 11.2692C43 3.94084 48.9408 -2 56.2692 -2C63.5976 -2 69.5385 3.94084 69.5385 11.2692Z" fill="#3070ED"/>
<g clip-path="url(#clip7_695_11314)">
<path d="M57.3755 5.88944V8.17315C57.3755 8.48279 57.3755 8.63762 57.4358 8.75588C57.4888 8.85992 57.5734 8.9445 57.6774 8.9975C57.7957 9.05776 57.9505 9.05776 58.2601 9.05776H60.5439M58.4813 11.8221H54.0582M58.4813 14.0337H54.0582M55.164 9.61061H54.0582M57.3755 5.74042H54.5005C53.5716 5.74042 53.1071 5.74042 52.7523 5.9212C52.4402 6.08022 52.1865 6.33396 52.0275 6.64606C51.8467 7.00086 51.8467 7.46533 51.8467 8.39426V14.1443C51.8467 15.0732 51.8467 15.5377 52.0275 15.8925C52.1865 16.2046 52.4402 16.4583 52.7523 16.6173C53.1071 16.7981 53.5716 16.7981 54.5005 16.7981H58.039C58.9679 16.7981 59.4324 16.7981 59.7872 16.6173C60.0993 16.4583 60.353 16.2046 60.5121 15.8925C60.6928 15.5377 60.6928 15.0732 60.6928 14.1443V9.05773L57.3755 5.74042Z" stroke="white" stroke-width="1.10577" stroke-linecap="round" stroke-linejoin="round"/>
</g>
</g>
</g>
<defs>
<clipPath id="clip0_695_11314">
<path d="M0 8C0 3.58172 3.58172 0 8 0H112V120H8C3.58172 120 0 116.418 0 112V8Z" fill="white"/>
</clipPath>
<clipPath id="clip1_695_11314">
<rect width="17.6923" height="17.6923" fill="white" transform="translate(47.1523 50.0137)"/>
</clipPath>
<clipPath id="clip2_695_11314">
<rect width="13.2692" height="13.2692" fill="white" transform="translate(86.2246 28.6346)"/>
</clipPath>
<clipPath id="clip3_695_11314">
<rect width="13.2692" height="13.2692" fill="white" transform="translate(86.2246 72.6346)"/>
</clipPath>
<clipPath id="clip4_695_11314">
<rect width="13.2692" height="13.2692" fill="white" transform="translate(12.5078 28.6346)"/>
</clipPath>
<clipPath id="clip5_695_11314">
<rect width="13.2692" height="13.2692" fill="white" transform="translate(12.5078 72.6346)"/>
</clipPath>
<clipPath id="clip6_695_11314">
<rect width="13.2692" height="13.2692" fill="white" transform="translate(49.6348 103.635)"/>
</clipPath>
<clipPath id="clip7_695_11314">
<rect width="13.2692" height="13.2692" fill="white" transform="translate(49.6348 4.63464)"/>
</clipPath>
</defs>
</svg>
